<svg width="102" height="100" viewBox="0 0 102 100" fill="none" xmlns="http://www.w3.org/2000/svg">
<ellipse cx="50.5" cy="49.6868" rx="50.5" ry="49.0712" fill="white"/>
<path d="M100.681 50.0176C100.681 76.7224 78.3938 98.4196 50.8404 98.4196C23.2871 98.4196 1 76.7224 1 50.0176C1 23.3128 23.2871 1.6156 50.8404 1.6156C78.3938 1.6156 100.681 23.3128 100.681 50.0176Z" stroke="white" stroke-width="2"/>
<mask id="mask0_15_190" style="mask-type:alpha" maskUnits="userSpaceOnUse" x="0" y="0" width="102" height="100">
<ellipse cx="50.8404" cy="50.0176" rx="50.8404" ry="49.402" fill="white"/>
</mask>
<g mask="url(#mask0_15_190)">
<g filter="url(#filter0_f_15_190)">
<ellipse cx="23.8746" cy="15.8034" rx="30.7447" ry="29.8749" fill="url(#paint0_radial_15_190)" fill-opacity="0.25"/>
</g>
<g filter="url(#filter1_f_15_190)">
<ellipse cx="20.0953" cy="55.5252" rx="30.7447" ry="29.8749" fill="url(#paint1_radial_15_190)" fill-opacity="0.25"/>
</g>
<g filter="url(#filter2_f_15_190)">
<ellipse cx="51.0123" cy="78.891" rx="30.7447" ry="29.8749" fill="url(#paint2_radial_15_190)" fill-opacity="0.25"/>
</g>
<g filter="url(#filter3_f_15_190)">
<ellipse cx="78.15" cy="55.5252" rx="30.7447" ry="29.8749" fill="url(#paint3_radial_15_190)" fill-opacity="0.25"/>
</g>
<g filter="url(#filter4_f_15_190)">
<ellipse cx="78.15" cy="15.8034" rx="30.7447" ry="29.8749" fill="url(#paint4_radial_15_190)" fill-opacity="0.25"/>
</g>
</g>
<path d="M41.3937 78.7242C46.8008 78.7242 51.1839 74.6145 51.1839 69.5448V60.3654H41.3937C35.9867 60.3654 31.6035 64.4753 31.6035 69.5448C31.6035 74.6145 35.9867 78.7242 41.3937 78.7242Z" fill="#0ACF83"/>
<path d="M31.6035 50.8521C31.6035 45.598 35.9867 41.3389 41.3937 41.3389H51.1839V60.3653H41.3937C35.9867 60.3653 31.6035 56.106 31.6035 50.8521Z" fill="#A259FF"/>
<path d="M31.6035 32.1595C31.6035 27.0898 35.9867 22.98 41.3937 22.98H51.1839V41.3389H41.3937C35.9867 41.3389 31.6035 37.229 31.6035 32.1595Z" fill="#F24E1E"/>
<path d="M51.1836 22.98H60.6303C65.8476 22.98 70.077 27.0898 70.077 32.1595C70.077 37.229 65.8476 41.3389 60.6303 41.3389H51.1836V22.98Z" fill="#FF7262"/>
<path d="M70.077 50.8521C70.077 56.106 65.8476 60.3653 60.6303 60.3653C55.413 60.3653 51.1836 56.106 51.1836 50.8521C51.1836 45.598 55.413 41.3389 60.6303 41.3389C65.8476 41.3389 70.077 45.598 70.077 50.8521Z" fill="#1ABCFE"/>
<defs>
<filter id="filter0_f_15_190" x="-26.8701" y="-34.0715" width="101.489" height="99.7497" filterUnits="userSpaceOnUse" color-interpolation-filters="sRGB">
<feFlood flood-opacity="0" result="BackgroundImageFix"/>
<feBlend mode="normal" in="SourceGraphic" in2="BackgroundImageFix" result="shape"/>
<feGaussianBlur stdDeviation="10" result="effect1_foregroundBlur_15_190"/>
</filter>
<filter id="filter1_f_15_190" x="-30.6494" y="5.65039" width="101.489" height="99.7497" filterUnits="userSpaceOnUse" color-interpolation-filters="sRGB">
<feFlood flood-opacity="0" result="BackgroundImageFix"/>
<feBlend mode="normal" in="SourceGraphic" in2="BackgroundImageFix" result="shape"/>
<feGaussianBlur stdDeviation="10" result="effect1_foregroundBlur_15_190"/>
</filter>
<filter id="filter2_f_15_190" x="0.267578" y="29.0162" width="101.489" height="99.7497" filterUnits="userSpaceOnUse" color-interpolation-filters="sRGB">
<feFlood flood-opacity="0" result="BackgroundImageFix"/>
<feBlend mode="normal" in="SourceGraphic" in2="BackgroundImageFix" result="shape"/>
<feGaussianBlur stdDeviation="10" result="effect1_foregroundBlur_15_190"/>
</filter>
<filter id="filter3_f_15_190" x="27.4053" y="5.65039" width="101.489" height="99.7497" filterUnits="userSpaceOnUse" color-interpolation-filters="sRGB">
<feFlood flood-opacity="0" result="BackgroundImageFix"/>
<feBlend mode="normal" in="SourceGraphic" in2="BackgroundImageFix" result="shape"/>
<feGaussianBlur stdDeviation="10" result="effect1_foregroundBlur_15_190"/>
</filter>
<filter id="filter4_f_15_190" x="27.4053" y="-34.0715" width="101.489" height="99.7497" filterUnits="userSpaceOnUse" color-interpolation-filters="sRGB">
<feFlood flood-opacity="0" result="BackgroundImageFix"/>
<feBlend mode="normal" in="SourceGraphic" in2="BackgroundImageFix" result="shape"/>
<feGaussianBlur stdDeviation="10" result="effect1_foregroundBlur_15_190"/>
</filter>
<radialGradient id="paint0_radial_15_190" cx="0" cy="0" r="1" gradientUnits="userSpaceOnUse" gradientTransform="translate(23.8746 15.8034) scale(30.7447 29.8749)">
<stop stop-color="#F24E1E"/>
<stop offset="1" stop-color="#F24E1E" stop-opacity="0.25"/>
</radialGradient>
<radialGradient id="paint1_radial_15_190" cx="0" cy="0" r="1" gradientUnits="userSpaceOnUse" gradientTransform="translate(20.0953 55.5252) rotate(90) scale(29.8749 30.7447)">
<stop stop-color="#A259FF"/>
<stop offset="1" stop-color="#A259FF" stop-opacity="0.25"/>
</radialGradient>
<radialGradient id="paint2_radial_15_190" cx="0" cy="0" r="1" gradientUnits="userSpaceOnUse" gradientTransform="translate(51.0123 78.891) rotate(90) scale(29.8749 30.7447)">
<stop stop-color="#0ACF83"/>
<stop offset="1" stop-color="#0ACF83" stop-opacity="0.25"/>
</radialGradient>
<radialGradient id="paint3_radial_15_190" cx="0" cy="0" r="1" gradientUnits="userSpaceOnUse" gradientTransform="translate(78.15 55.5252) rotate(90) scale(29.8749 30.7447)">
<stop stop-color="#1ABCFE"/>
<stop offset="1" stop-color="#1ABCFE" stop-opacity="0.25"/>
</radialGradient>
<radialGradient id="paint4_radial_15_190" cx="0" cy="0" r="1" gradientUnits="userSpaceOnUse" gradientTransform="translate(78.15 15.8034) rotate(90) scale(29.8749 30.7447)">
<stop stop-color="#FF7262"/>
<stop offset="1" stop-color="#FF7262" stop-opacity="0.25"/>
</radialGradient>
</defs>
</svg>
