<svg width="36" height="36" viewBox="0 0 36 36" fill="none" xmlns="http://www.w3.org/2000/svg">
<g clip-path="url(#clip0_15_148)" filter="url(#filter0_i_15_148)">
<g filter="url(#filter1_i_15_148)">
<path d="M29.5873 34.9104C31.9911 33.9816 33.8916 32.0812 34.8204 29.6773C35.26 28.5386 35.5678 27.2393 35.6513 25.3389C35.6711 24.8937 35.6865 24.52 35.7008 24.1452V11.4477C35.6909 11.1828 35.6799 10.9069 35.6656 10.5969C35.5821 8.69648 35.2743 7.39067 34.8347 6.25853C34.3807 5.05715 33.6816 3.98107 32.7671 3.08745C31.8724 2.17844 30.7897 1.47278 29.6015 1.02652C28.4628 0.586853 27.1636 0.279088 25.2631 0.195552C23.3484 0.104321 22.7406 0.0834351 17.8856 0.0834351C13.0306 0.0834351 12.4216 0.10432 10.5146 0.187857C8.61413 0.271393 7.30833 0.579158 6.17619 1.01882C4.97481 1.47278 3.89873 2.17185 3.00401 3.08745C2.0961 3.98217 1.39044 5.06484 0.94308 6.25194C0.503415 7.39067 0.19565 8.68988 0.112113 10.5903C0.0208829 12.5051 0 13.1129 0 17.969C0 22.8251 0.0208821 23.4329 0.104418 25.34C0.187955 27.2404 0.495721 28.5473 0.936485 29.6784C1.39044 30.8798 2.0961 31.9558 3.00401 32.8506C3.89873 33.7585 4.9814 34.4652 6.1696 34.9115C7.30833 35.3512 8.60754 35.6589 10.508 35.7425C12.415 35.8271 13.0229 35.848 17.879 35.848C22.7351 35.848 23.3418 35.8271 25.25 35.7425C27.1504 35.6589 28.4562 35.3512 29.5884 34.9115L29.5873 34.9104ZM17.8922 32.6329C13.1196 32.6329 12.5469 32.612 10.6674 32.5285C8.9208 32.4516 7.97772 32.1581 7.349 31.9141C6.57409 31.6272 5.86843 31.1732 5.29466 30.5797C4.70112 29.9993 4.24607 29.3014 3.96028 28.5254C3.71627 27.8966 3.42279 26.9459 3.34585 25.207C3.26231 23.3208 3.24143 22.7548 3.24143 17.9822C3.24143 13.2096 3.26231 12.637 3.34585 10.7585C3.42279 9.01193 3.71627 8.06885 3.96028 7.44013C4.24716 6.66412 4.70112 5.95846 5.30236 5.3858C5.88162 4.79225 6.58068 4.33829 7.35559 4.05141C7.98432 3.8074 8.93509 3.51392 10.674 3.43698C12.5601 3.35344 13.1262 3.33256 17.8977 3.33256C22.6691 3.33256 23.2429 3.35344 25.1225 3.43698C26.869 3.51392 27.8121 3.8074 28.4408 4.05141C29.2157 4.33829 29.9214 4.79225 30.4941 5.3858C31.0876 5.96616 31.5427 6.66412 31.8285 7.44013C32.0725 8.06885 32.3659 9.01853 32.4429 10.7585C32.5264 12.6447 32.5473 13.2107 32.5473 17.9822C32.5473 22.7537 32.5264 23.3131 32.4429 25.1993C32.3659 26.9459 32.0725 27.8889 31.8285 28.5177C31.2272 30.0763 29.9907 31.3128 28.4331 31.913C27.8044 32.157 26.8547 32.4505 25.1148 32.5274C23.2286 32.611 22.6625 32.6318 17.8911 32.6318L17.8922 32.6329Z" fill="white"/>
<path d="M17.8857 8.7799C12.813 8.7799 8.69775 12.8952 8.69775 17.9678C8.69775 23.0404 12.813 27.1557 17.8857 27.1557C22.9583 27.1557 27.0725 23.0404 27.0725 17.9678C27.0725 12.8952 22.9572 8.7799 17.8857 8.7799ZM17.8857 23.9264C14.5948 23.9264 11.926 21.2576 11.926 17.9667C11.926 14.6758 14.5948 12.007 17.8857 12.007C21.1765 12.007 23.8453 14.6758 23.8453 17.9667C23.8453 21.2576 21.1765 23.9264 17.8857 23.9264Z" fill="white"/>
<path d="M29.5806 8.41726C29.5806 7.23236 28.6199 6.27279 27.435 6.27279C26.2501 6.27279 25.2905 7.23346 25.2905 8.41726C25.2905 9.60106 26.2512 10.5617 27.435 10.5617C28.6188 10.5617 29.5806 9.60216 29.5806 8.41726Z" fill="white"/>
</g>
</g>
<defs>
<filter id="filter0_i_15_148" x="0" y="0.0834351" width="35.7646" height="36.0371" filterUnits="userSpaceOnUse" color-interpolation-filters="sRGB">
<feFlood flood-opacity="0" result="BackgroundImageFix"/>
<feBlend mode="normal" in="SourceGraphic" in2="BackgroundImageFix" result="shape"/>
<feColorMatrix in="SourceAlpha" type="matrix" values="0 0 0 0 0 0 0 0 0 0 0 0 0 0 0 0 0 0 127 0" result="hardAlpha"/>
<feOffset dy="0.272504"/>
<feGaussianBlur stdDeviation="0.68126"/>
<feComposite in2="hardAlpha" operator="arithmetic" k2="-1" k3="1"/>
<feColorMatrix type="matrix" values="0 0 0 0 0 0 0 0 0 0 0 0 0 0 0 0 0 0 0.2 0"/>
<feBlend mode="normal" in2="shape" result="effect1_innerShadow_15_148"/>
</filter>
<filter id="filter1_i_15_148" x="0" y="0.0834351" width="35.7007" height="36.0371" filterUnits="userSpaceOnUse" color-interpolation-filters="sRGB">
<feFlood flood-opacity="0" result="BackgroundImageFix"/>
<feBlend mode="normal" in="SourceGraphic" in2="BackgroundImageFix" result="shape"/>
<feColorMatrix in="SourceAlpha" type="matrix" values="0 0 0 0 0 0 0 0 0 0 0 0 0 0 0 0 0 0 127 0" result="hardAlpha"/>
<feOffset dy="0.272504"/>
<feGaussianBlur stdDeviation="0.68126"/>
<feComposite in2="hardAlpha" operator="arithmetic" k2="-1" k3="1"/>
<feColorMatrix type="matrix" values="0 0 0 0 0 0 0 0 0 0 0 0 0 0 0 0 0 0 0.1 0"/>
<feBlend mode="normal" in2="shape" result="effect1_innerShadow_15_148"/>
</filter>
<clipPath id="clip0_15_148">
<rect width="35.7645" height="35.7645" fill="white" transform="translate(0 0.0834351)"/>
</clipPath>
</defs>
</svg>
