<svg width="174" height="58" viewBox="0 0 174 58" fill="none" xmlns="http://www.w3.org/2000/svg">
<path d="M3.648 55V21.4H17.808C19.92 21.4 21.84 21.88 23.568 22.84C25.296 23.768 26.672 25.08 27.696 26.776C28.72 28.472 29.232 30.456 29.232 32.728C29.232 34.904 28.72 36.856 27.696 38.584C26.704 40.28 25.344 41.608 23.616 42.568C21.888 43.528 19.92 44.008 17.712 44.008H8.256V55H3.648ZM8.256 39.928H17.184C18.56 39.928 19.808 39.656 20.928 39.112C22.08 38.536 22.976 37.704 23.616 36.616C24.288 35.528 24.624 34.232 24.624 32.728C24.624 31.192 24.288 29.896 23.616 28.84C22.944 27.752 22.048 26.92 20.928 26.344C19.808 25.768 18.576 25.48 17.232 25.48H8.256V39.928ZM42.885 55C41.029 55 39.381 54.568 37.941 53.704C36.533 52.808 35.429 51.64 34.629 50.2C33.829 48.76 33.429 47.192 33.429 45.496C33.429 43.96 33.781 42.52 34.485 41.176C35.221 39.832 36.277 38.776 37.653 38.008C36.309 37.144 35.285 36.072 34.581 34.792C33.877 33.512 33.525 32.168 33.525 30.76C33.525 29.032 33.925 27.464 34.725 26.056C35.557 24.648 36.677 23.528 38.085 22.696C39.493 21.832 41.045 21.4 42.741 21.4H56.037V25.48H43.269C42.277 25.48 41.397 25.72 40.629 26.2C39.861 26.68 39.253 27.32 38.805 28.12C38.357 28.888 38.133 29.768 38.133 30.76C38.133 31.688 38.357 32.536 38.805 33.304C39.285 34.072 39.925 34.696 40.725 35.176C41.525 35.624 42.405 35.848 43.365 35.848H54.261V39.928H43.701C42.517 39.928 41.493 40.2 40.629 40.744C39.797 41.256 39.141 41.944 38.661 42.808C38.213 43.64 37.989 44.536 37.989 45.496C37.989 46.456 38.213 47.352 38.661 48.184C39.109 49.016 39.749 49.688 40.581 50.2C41.413 50.68 42.389 50.92 43.509 50.92H56.037V55H42.885ZM61.8199 55V21.4H72.5719C76.1559 21.4 79.2439 22.12 81.8359 23.56C84.4599 25 86.4919 26.984 87.9319 29.512C89.3719 32.04 90.0919 34.936 90.0919 38.2C90.0919 41.464 89.3719 44.36 87.9319 46.888C86.4919 49.416 84.4599 51.4 81.8359 52.84C79.2439 54.28 76.1559 55 72.5719 55H61.8199ZM66.4279 50.92H72.6199C75.1159 50.92 77.3239 50.408 79.2439 49.384C81.1959 48.36 82.7319 46.904 83.8519 45.016C84.9719 43.096 85.5319 40.824 85.5319 38.2C85.5319 35.544 84.9719 33.272 83.8519 31.384C82.7319 29.496 81.1959 28.04 79.2439 27.016C77.3239 25.992 75.1159 25.48 72.6199 25.48H66.4279V50.92ZM95.1094 55V21.4H115.821L120.765 26.344V36.76L117.837 39.448L120.765 42.64V55H113.973V45.04L111.573 42.64H101.901V55H95.1094ZM96.9814 53.176H100.053V40.696H112.365L115.869 44.368V53.176H118.965V43.36L115.197 39.256L118.869 36.04V27.232L114.861 23.224H96.9814V53.176ZM101.901 35.848H112.509L113.973 34.36V29.656L112.509 28.192H101.901V35.848ZM100.053 37.6V26.296H113.349L115.773 28.72V35.008L112.821 37.6H100.053ZM131.22 55L126.276 50.056V26.344L131.22 21.4H147.156L152.1 26.344V50.056L147.156 55H131.22ZM134.532 48.208H143.844L145.308 46.744V29.656L143.844 28.192H134.532L133.068 29.656V46.744L134.532 48.208ZM132.18 53.08H146.22L150.252 49.072V27.208L146.22 23.2H132.18L128.172 27.208V49.072L132.18 53.08ZM133.692 50.008L131.244 47.584V28.696L133.692 26.296H144.732L147.156 28.696V47.584L144.732 50.008H133.692Z" fill="#042130"/>
<path d="M161.203 53.0781C161.203 53.4688 161.125 53.8359 160.969 54.1797C160.828 54.5078 160.633 54.7969 160.383 55.0469C160.133 55.2969 159.836 55.4922 159.492 55.6328C159.164 55.7891 158.812 55.8672 158.438 55.8672C158.047 55.8672 157.68 55.7891 157.336 55.6328C157.008 55.4922 156.719 55.2969 156.469 55.0469C156.219 54.7969 156.016 54.5078 155.859 54.1797C155.719 53.8359 155.648 53.4688 155.648 53.0781C155.648 52.7031 155.719 52.3438 155.859 52C156.016 51.6562 156.219 51.3594 156.469 51.1094C156.719 50.8594 157.008 50.6641 157.336 50.5234C157.68 50.3672 158.047 50.2891 158.438 50.2891C158.812 50.2891 159.164 50.3672 159.492 50.5234C159.836 50.6641 160.133 50.8594 160.383 51.1094C160.633 51.3594 160.828 51.6562 160.969 52C161.125 52.3438 161.203 52.7031 161.203 53.0781Z" fill="#F0243C"/>
</svg>
