<svg width="123" height="121" viewBox="0 0 123 121" fill="none" xmlns="http://www.w3.org/2000/svg">
<ellipse cx="61.7988" cy="59.641" rx="50.5" ry="49.0712" fill="white"/>
<path d="M111.581 60.409C111.581 87.3552 89.0922 109.248 61.2903 109.248C33.4885 109.248 11 87.3552 11 60.409C11 33.4627 33.4885 11.5698 61.2903 11.5698C89.0922 11.5698 111.581 33.4627 111.581 60.409Z" stroke="white" stroke-width="2"/>
<g filter="url(#filter0_f_15_208)">
<ellipse cx="61.2903" cy="60.409" rx="51.2903" ry="49.8392" fill="url(#paint0_radial_15_208)" fill-opacity="0.7"/>
</g>
<path fill-rule="evenodd" clip-rule="evenodd" d="M34.959 36.8604C34.959 36.5754 35.5881 36.3615 35.9548 36.3615C38.8153 36.219 43.0154 36.1476 47.4159 36.1476C59.7386 36.1476 64.5378 42.7062 64.5378 51.1186C64.5378 62.0972 56.3458 66.8022 46.297 66.8022C45.3772 66.8022 44.7844 66.781 44.2453 66.7615C43.7956 66.7454 43.3833 66.7306 42.8496 66.7306V83.3302C42.8496 83.6871 42.7029 83.8298 42.3362 83.8298H35.4723C35.1056 83.8298 34.959 83.6871 34.959 83.3302V36.8604ZM42.8496 59.8157C43.8765 59.8866 44.6833 59.8866 46.4437 59.8866C51.6515 59.8866 56.5427 58.1043 56.5427 51.2606C56.5427 45.7708 53.0452 42.9911 47.1039 42.9911C45.3436 42.9911 43.6564 43.0618 42.8496 43.1336V59.8155V59.8157ZM76.4178 57.8198C76.4178 56.3939 77.5913 54.6829 81.112 54.6829C83.9732 54.6829 86.8863 55.3958 88.8662 56.5364C89.3064 56.6791 89.5265 56.4648 89.5265 56.1088V50.1905C89.5265 49.9052 89.453 49.5493 89.0863 49.3349C87.6193 48.6937 84.9262 48.1234 81.112 48.1234C73.3374 48.1234 68.8633 52.7577 68.8633 58.3182C68.8633 63.3083 71.5037 66.3023 77.8119 69.2257C82.2861 71.5065 83.313 72.8615 83.313 74.4299C83.313 76.3547 81.8459 77.7806 78.3252 77.7806C75.3908 77.7806 72.1559 76.9959 69.3687 75.2141C69.0752 75.0006 68.8553 75.1431 68.8553 75.5709V81.9157C68.8553 82.2721 68.9285 82.486 69.222 82.6285C71.129 83.6975 74.4378 84.4822 78.3252 84.4822C85.6601 84.4822 91.088 80.7751 91.088 73.8595C91.088 69.2262 88.8875 66.0893 81.9193 62.81C77.2246 60.457 76.4178 59.3882 76.4178 57.8198Z" fill="#158DAF"/>
<defs>
<filter id="filter0_f_15_208" x="0" y="0.569763" width="122.581" height="119.678" filterUnits="userSpaceOnUse" color-interpolation-filters="sRGB">
<feFlood flood-opacity="0" result="BackgroundImageFix"/>
<feBlend mode="normal" in="SourceGraphic" in2="BackgroundImageFix" result="shape"/>
<feGaussianBlur stdDeviation="5" result="effect1_foregroundBlur_15_208"/>
</filter>
<radialGradient id="paint0_radial_15_208" cx="0" cy="0" r="1" gradientUnits="userSpaceOnUse" gradientTransform="translate(10 10.5698) rotate(44.1779) scale(143.033 142.975)">
<stop stop-color="#31C5F0" stop-opacity="0.75"/>
<stop offset="1" stop-color="#31C5F0" stop-opacity="0.25"/>
</radialGradient>
</defs>
</svg>
