<svg width="38" height="39" viewBox="0 0 38 39" fill="none" xmlns="http://www.w3.org/2000/svg">
<g clip-path="url(#clip0_15_179)" filter="url(#filter0_i_15_179)">
<path d="M0 38.0829L2.72399 27.9544C0.527161 24.0089 -0.170795 19.4048 0.758202 14.9869C1.6872 10.5691 4.18083 6.6339 7.78152 3.90344C11.3822 1.17298 15.8484 -0.169585 20.3606 0.122111C24.8728 0.413806 29.1282 2.32019 32.3461 5.49145C35.564 8.66271 37.5285 12.8861 37.879 17.3867C38.2296 21.8872 36.9427 26.363 34.2545 29.9928C31.5663 33.6225 27.6572 36.1627 23.2444 37.1473C18.8317 38.1318 14.2112 37.4947 10.2311 35.3527L0 38.0829ZM10.7244 31.5626L11.3571 31.9373C14.2401 33.6432 17.6073 34.3492 20.9341 33.9451C24.2608 33.5411 27.3603 32.0497 29.7494 29.7034C32.1385 27.3571 33.6831 24.2878 34.1425 20.9736C34.6018 17.6594 33.9502 14.2866 32.289 11.3808C30.6278 8.47499 28.0505 6.1994 24.9586 4.90863C21.8668 3.61787 18.434 3.38444 15.1954 4.24473C11.9568 5.10502 9.09418 7.0107 7.05368 9.6648C5.01318 12.3189 3.90942 15.5723 3.9144 18.9181C3.91169 21.6922 4.68018 24.4127 6.13434 26.7767L6.53115 27.4298L5.00828 33.0829L10.7244 31.5626Z" fill="white"/>
<path fill-rule="evenodd" clip-rule="evenodd" d="M26.0817 21.5188C25.7108 21.2201 25.2765 21.0099 24.8118 20.9041C24.3472 20.7983 23.8646 20.7998 23.4006 20.9085C22.7035 21.1976 22.2531 22.2896 21.8027 22.8357C21.7077 22.9666 21.5681 23.0584 21.4102 23.0939C21.2522 23.1293 21.0867 23.1061 20.9447 23.0284C18.3927 22.0305 16.2535 20.2005 14.8747 17.8357C14.7571 17.6881 14.7015 17.5008 14.7195 17.313C14.7375 17.1253 14.8277 16.9519 14.9712 16.8293C15.4736 16.3328 15.8425 15.7178 16.0437 15.0413C16.0884 14.295 15.9171 13.5517 15.5504 12.9C15.2668 11.9862 14.7272 11.1726 13.9953 10.5552C13.6178 10.3857 13.1993 10.3289 12.7901 10.3916C12.381 10.4543 11.9988 10.6338 11.6896 10.9085C11.1528 11.3709 10.7267 11.9476 10.4428 12.5961C10.1588 13.2446 10.0241 13.9485 10.0488 14.6558C10.0504 15.0531 10.1008 15.4486 10.1989 15.8336C10.4479 16.7585 10.8309 17.6422 11.3357 18.4567C11.6999 19.0806 12.0972 19.6846 12.5261 20.2661C13.9198 22.1761 15.6717 23.7979 17.6845 25.0412C18.6946 25.6731 19.7741 26.1868 20.9018 26.5723C22.0733 27.1024 23.3667 27.3059 24.6446 27.1611C25.3728 27.0511 26.0627 26.7641 26.6536 26.3254C27.2446 25.8866 27.7184 25.3096 28.0335 24.6451C28.2187 24.2437 28.2749 23.7949 28.1944 23.3603C28.0014 22.4717 26.811 21.947 26.0817 21.5188Z" fill="white"/>
</g>
<defs>
<filter id="filter0_i_15_179" x="0" y="0.0828857" width="38" height="38.2725" filterUnits="userSpaceOnUse" color-interpolation-filters="sRGB">
<feFlood flood-opacity="0" result="BackgroundImageFix"/>
<feBlend mode="normal" in="SourceGraphic" in2="BackgroundImageFix" result="shape"/>
<feColorMatrix in="SourceAlpha" type="matrix" values="0 0 0 0 0 0 0 0 0 0 0 0 0 0 0 0 0 0 127 0" result="hardAlpha"/>
<feOffset dy="0.272504"/>
<feGaussianBlur stdDeviation="0.68126"/>
<feComposite in2="hardAlpha" operator="arithmetic" k2="-1" k3="1"/>
<feColorMatrix type="matrix" values="0 0 0 0 0 0 0 0 0 0 0 0 0 0 0 0 0 0 0.1 0"/>
<feBlend mode="normal" in2="shape" result="effect1_innerShadow_15_179"/>
</filter>
<clipPath id="clip0_15_179">
<rect width="38" height="38" fill="white" transform="translate(0 0.0828857)"/>
</clipPath>
</defs>
</svg>
